<svg xmlns="http://www.w3.org/2000/svg" width="48" height="48" viewBox="0 0 48 48">
    <g data-name="그룹 3137">
        <path data-name="사각형 1597" style="fill:none" d="M0 0h48v48H0z"/>
        <path d="M24.1 45.05v-3H39v-2.7h-7.4v-14.8H39v-3.4a14.783 14.783 0 0 0-4.35-10.675A14.166 14.166 0 0 0 24.1 6a14.491 14.491 0 0 0-10.65 4.475A14.613 14.613 0 0 0 9 21.15v3.4h7.4v14.8H9a2.878 2.878 0 0 1-2.1-.9 2.878 2.878 0 0 1-.9-2.1v-15.2a17.592 17.592 0 0 1 1.425-7.05A18.611 18.611 0 0 1 11.3 8.325a18.1 18.1 0 0 1 5.75-3.9A17.592 17.592 0 0 1 24.1 3a17.6 17.6 0 0 1 12.7 5.325 18.7 18.7 0 0 1 3.8 5.775 17.863 17.863 0 0 1 1.4 7.05v20.9a3.076 3.076 0 0 1-3 3zM9 36.35h4.4v-8.8H9zm25.6 0H39v-8.8h-4.4zm4.4 0zm-25.6 0z"/>
    </g>
</svg>
