<svg xmlns="http://www.w3.org/2000/svg" width="40" height="40" viewBox="0 0 40 40">
    <path data-name="Rectangle 1560" style="fill:none" d="M0 0h40v40H0z"/>
    <path data-name="Path 34" d="M56.072 40.2a1.268 1.268 0 0 0-.678-.838l-2.606-1.288-1.25-2.165.187-2.9A1.268 1.268 0 0 0 51.338 32a15.716 15.716 0 0 0-6.349-3.666 1.268 1.268 0 0 0-1.065.168l-2.419 1.612h-2.5L36.586 28.5a1.268 1.268 0 0 0-1.065-.168A15.718 15.718 0 0 0 29.172 32a1.268 1.268 0 0 0-.387 1.006l.187 2.9-1.25 2.165-2.606 1.289a1.268 1.268 0 0 0-.678.838 15.717 15.717 0 0 0 0 7.331 1.268 1.268 0 0 0 .678.838l2.606 1.288 1.25 2.165-.187 2.9a1.268 1.268 0 0 0 .387 1.006 15.716 15.716 0 0 0 6.349 3.666 1.268 1.268 0 0 0 1.065-.168L39 57.614h2.5l2.419 1.612a1.268 1.268 0 0 0 1.065.168 15.718 15.718 0 0 0 6.349-3.666 1.268 1.268 0 0 0 .387-1.006l-.187-2.9 1.25-2.165 2.606-1.288a1.268 1.268 0 0 0 .678-.838 15.718 15.718 0 0 0 0-7.331zM40.255 52.614a8.75 8.75 0 1 1 8.75-8.75 8.75 8.75 0 0 1-8.75 8.75z" transform="translate(-20.254 -23.864)" style="fill:#b1cad6;opacity:.2"/>
    <circle data-name="Ellipse 13" cx="8.75" cy="8.75" r="8.75" transform="translate(11.251 11.25)" style="stroke-linecap:round;stroke-linejoin:round;stroke:#007cba;stroke-width:2px;fill:none"/>
    <path data-name="Path 35" d="m28.972 51.821-.187 2.9a1.268 1.268 0 0 0 .387 1.006 15.718 15.718 0 0 0 6.349 3.666 1.268 1.268 0 0 0 1.065-.168L39 57.614h2.5l2.419 1.612a1.268 1.268 0 0 0 1.065.168 15.717 15.717 0 0 0 6.349-3.666 1.268 1.268 0 0 0 .387-1.006l-.187-2.9 1.25-2.165 2.606-1.288a1.268 1.268 0 0 0 .678-.838 15.718 15.718 0 0 0 0-7.331 1.268 1.268 0 0 0-.678-.838l-2.606-1.288-1.25-2.165.187-2.9A1.268 1.268 0 0 0 51.338 32a15.718 15.718 0 0 0-6.349-3.666 1.268 1.268 0 0 0-1.065.168l-2.419 1.612h-2.5L36.586 28.5a1.268 1.268 0 0 0-1.065-.168A15.718 15.718 0 0 0 29.172 32a1.268 1.268 0 0 0-.387 1.006l.187 2.9-1.25 2.165-2.606 1.289a1.268 1.268 0 0 0-.678.838 15.717 15.717 0 0 0 0 7.331 1.268 1.268 0 0 0 .678.838l2.606 1.288z" transform="translate(-20.254 -23.864)" style="stroke-miterlimit:10;stroke:#007cba;stroke-width:2px;fill:none"/>
</svg>
