<svg id="icon-mypage-1" xmlns="http://www.w3.org/2000/svg" width="40" height="40" viewBox="0 0 40 40">
    <defs>
        <style>
            .cls-3{fill:none;stroke:#007cba;stroke-linecap:round;stroke-linejoin:round;stroke-width:2px}
        </style>
    </defs>
    <path id="Rectangle_1556" data-name="Rectangle 1556" style="fill:none" d="M0 0h40v40H0z"/>
    <path id="Path_23" data-name="Path 23" d="M49.494 61.983v-28.75a1.25 1.25 0 0 0-1.25-1.25h-15a1.25 1.25 0 0 0-1.25 1.25v28.75" transform="translate(-26.995 -26.986)" style="fill:#b1cad6;opacity:.2"/>
    <path id="Path_24" data-name="Path 24" class="cls-3" d="M49.494 61.983v-28.75a1.25 1.25 0 0 0-1.25-1.25h-15a1.25 1.25 0 0 0-1.25 1.25v28.75" transform="translate(-26.995 -26.986)"/>
    <path id="Path_25" data-name="Path 25" class="cls-3" d="M156.494 115.983v-18.75a1.25 1.25 0 0 0-1.25-1.25h-11.25" transform="translate(-121.495 -80.986)"/>
    <path id="Line_18" data-name="Line 18" class="cls-3" transform="translate(9.999 11.247)" d="M0 0h5"/>
    <path id="Line_19" data-name="Line 19" class="cls-3" transform="translate(12.499 23.747)" d="M0 0h5"/>
    <path id="Line_20" data-name="Line 20" class="cls-3" transform="translate(9.999 29.997)" d="M0 0h5"/>
    <path id="Line_21" data-name="Line 21" class="cls-3" transform="translate(27.499 27.497)" d="M0 0h2.5"/>
    <path id="Line_22" data-name="Line 22" class="cls-3" transform="translate(27.499 21.247)" d="M0 0h2.5"/>
</svg>
