<svg xmlns="http://www.w3.org/2000/svg" width="40" height="40" viewBox="0 0 40 40">
    <rect data-name="Rectangle 21" width="40" height="40" rx="10" style="fill:#f7f7f7"/>
    <path data-name="Path 7" d="M272.836 149.372h-4.226a.454.454 0 0 1-.442-.528c.369-2.348 3.194-2.348 3.194-2.348h.347a.63.63 0 0 0 .63-.631 2.246 2.246 0 0 0-2.246-2.245h-7.97a2.246 2.246 0 0 0-2.246 2.245.63.63 0 0 0 .63.631h.347s2.824 0 3.194 2.348a.454.454 0 0 1-.442.528h-1.416a6.94 6.94 0 0 0-4.164 1.388l-4.17 3.127a2.779 2.779 0 0 0-.944 3.172l1.073 2.949.822 2.262a20.514 20.514 0 0 1 1.236 7.013v1.934a2.119 2.119 0 0 0 2.118 2.119H273.1a2.12 2.12 0 0 0 2.119-2.119v-19.466a2.379 2.379 0 0 0-2.383-2.379z" transform="translate(-243.98 -138.479)" style="fill:#8b8b8b"/>
</svg>
