<svg xmlns="http://www.w3.org/2000/svg" width="30" height="30" viewBox="0 0 30 30">
    <path data-name="Rectangle 40" style="fill:none" d="M0 0h30v30H0z"/>
    <path data-name="Path 10" d="M53.124 55.1v-5.626a.938.938 0 0 0-.937-.937h-3.75a.938.938 0 0 0-.937.938V55.1a.938.938 0 0 1-.937.938h-5.625A.938.938 0 0 1 40 55.1V44.265a.938.938 0 0 1 .307-.694l9.374-8.524a.937.937 0 0 1 1.261 0l9.376 8.524a.937.937 0 0 1 .307.694V55.1a.937.937 0 0 1-.938.938h-5.625a.937.937 0 0 1-.937-.937z" transform="translate(-35.313 -30.725)" style="stroke:#b1cad6;stroke-linecap:round;stroke-linejoin:round;stroke-width:2px;fill:none"/>
</svg>
