<svg id="icon-mypage-5" xmlns="http://www.w3.org/2000/svg" width="40" height="40" viewBox="0 0 40 40">
    <defs>
        <style>
            .cls-3{fill:none;stroke:#007cba;stroke-linecap:round;stroke-linejoin:round;stroke-width:2px}
        </style>
    </defs>
    <path id="Rectangle_1559" data-name="Rectangle 1559" style="fill:none" d="M0 0h40v40H0z"/>
    <path id="Path_32" data-name="Path 32" d="M34.093 54.723a14.994 14.994 0 1 1 5.246 5.246l-5.181 1.48a1.25 1.25 0 0 1-1.545-1.549l1.48-5.181z" transform="translate(-26.995 -27.067)" style="fill:#b1cad6;opacity:.2"/>
    <path id="Path_33" data-name="Path 33" class="cls-3" d="M34.093 54.723a14.994 14.994 0 1 1 5.246 5.246h0l-5.181 1.48a1.25 1.25 0 0 1-1.545-1.549l1.48-5.181z" transform="translate(-26.995 -27.067)"/>
    <path id="Line_23" data-name="Line 23" class="cls-3" transform="translate(15 17.5)" d="M0 0h10"/>
    <path id="Line_24" data-name="Line 24" class="cls-3" transform="translate(15 22.5)" d="M0 0h10"/>
</svg>
