<svg xmlns="http://www.w3.org/2000/svg" width="48" height="48" viewBox="0 0 48 48">
    <g data-name="그룹 3139">
        <path data-name="사각형 1599"  style="fill:none;" d="M0 0h48v48H0z"/>
        <path style="fill:red;" d="M23.95 37.6a2.261 2.261 0 0 0 1.225-.275.917.917 0 0 0 .425-.825.979.979 0 0 0-.425-.85 2.215 2.215 0 0 0-1.275-.3 8.19 8.19 0 0 1-4.275-1.325 6.445 6.445 0 0 1-2.775-4.675 1.233 1.233 0 0 0-.45-.725 1.192 1.192 0 0 0-.75-.275.979.979 0 0 0-.85.425 1.067 1.067 0 0 0-.2.875 8.742 8.742 0 0 0 3.55 6.075 10.287 10.287 0 0 0 5.8 1.875zM24 44a15.29 15.29 0 0 1-11.425-4.7A16.11 16.11 0 0 1 8 27.6q0-5 3.975-10.875A66.487 66.487 0 0 1 24 4a66.487 66.487 0 0 1 12.025 12.725Q40 22.6 40 27.6a16.11 16.11 0 0 1-4.575 11.7A15.29 15.29 0 0 1 24 44zm0-3a12.4 12.4 0 0 0 9.3-3.825A13.222 13.222 0 0 0 37 27.6q0-3.95-3.325-8.975A55.649 55.649 0 0 0 24 8a55.649 55.649 0 0 0-9.675 10.625Q11 23.65 11 27.6a13.222 13.222 0 0 0 3.7 9.575A12.4 12.4 0 0 0 24 41zm0-17z"/>
    </g>
</svg>
